<svg width="256" xmlns="http://www.w3.org/2000/svg" height="256" fill="none"><defs><clipPath id="a" class="frame-clip frame-clip-def"><rect rx="0" ry="0" width="256" height="256" transform="matrix(1.000000, 0.000000, 0.000000, 1.000000, 0.000000, 0.000000)"/></clipPath></defs><g clip-path="url(#a)"><g class="fills"><rect rx="0" ry="0" width="256" height="256" transform="matrix(1.000000, 0.000000, 0.000000, 1.000000, 0.000000, 0.000000)" class="frame-background"/></g><g class="frame-children"><path d="M128.000,28.000L128.000,228.000C183.228,228.000,228.000,183.228,228.000,128.000C228.000,72.772,183.228,28.000,128.000,28.000ZM169.667,55.778C180.398,55.778,189.111,64.491,189.111,75.222C189.111,85.954,180.398,94.667,169.667,94.667C158.935,94.667,150.222,85.954,150.222,75.222C150.222,64.491,158.935,55.778,169.667,55.778ZM211.333,122.444C214.400,122.444,216.889,124.934,216.889,128.000C216.889,131.066,214.400,133.556,211.333,133.556C208.267,133.556,205.778,131.066,205.778,128.000C205.778,124.934,208.267,122.444,211.333,122.444ZM144.667,194.667C147.733,194.667,150.222,197.156,150.222,200.222C150.222,203.288,147.733,205.778,144.667,205.778C141.600,205.778,139.111,203.288,139.111,200.222C139.111,197.156,141.600,194.667,144.667,194.667ZM172.444,144.667C178.577,144.667,183.556,149.645,183.556,155.778C183.556,161.910,178.577,166.889,172.444,166.889C166.312,166.889,161.333,161.910,161.333,155.778C161.333,149.645,166.312,144.667,172.444,144.667Z" style="fill: rgb(0, 0, 0);" class="fills"/><path d="M94.667,100.222C103.865,100.222,111.333,107.690,111.333,116.889C111.333,126.087,103.865,133.556,94.667,133.556C85.468,133.556,78.000,126.087,78.000,116.889C78.000,107.690,85.468,100.222,94.667,100.222ZM103.000,161.333C113.732,161.333,122.444,170.046,122.444,180.778C122.444,191.509,113.732,200.222,103.000,200.222C92.268,200.222,83.556,191.509,83.556,180.778C83.556,170.046,92.268,161.333,103.000,161.333ZM111.333,50.222C117.466,50.222,122.444,55.201,122.444,61.333C122.444,67.466,117.466,72.444,111.333,72.444C105.201,72.444,100.222,67.466,100.222,61.333C100.222,55.201,105.201,50.222,111.333,50.222ZM61.333,72.444C64.400,72.444,66.889,74.934,66.889,78.000C66.889,81.066,64.400,83.556,61.333,83.556C58.267,83.556,55.778,81.066,55.778,78.000C55.778,74.934,58.267,72.444,61.333,72.444ZM50.222,122.444C56.355,122.444,61.333,127.423,61.333,133.556C61.333,139.688,56.355,144.667,50.222,144.667C44.090,144.667,39.111,139.688,39.111,133.556C39.111,127.423,44.090,122.444,50.222,122.444Z" style="fill: rgb(0, 0, 0);" class="fills"/></g></g></svg>