<svg width="256" xmlns="http://www.w3.org/2000/svg" height="256" fill="none"><defs><clipPath id="a" class="frame-clip frame-clip-def"><rect rx="0" ry="0" width="256" height="256" transform="matrix(1.000000, 0.000000, 0.000000, 1.000000, 0.000000, 0.000000)"/></clipPath></defs><g clip-path="url(#a)"><g class="fills"><rect rx="0" ry="0" width="256" height="256" transform="matrix(1.000000, 0.000000, 0.000000, 1.000000, 0.000000, 0.000000)" class="frame-background"/></g><g class="frame-children"><ellipse cx="128" cy="128" rx="128" ry="128" transform="matrix(1.000000, 0.000000, 0.000000, 1.000000, 0.000000, 0.000000)" style="fill: rgb(1, 44, 60); fill-opacity: 1;" class="fills"/><g class="fills"><rect rx="0" ry="0" x="48" y="48" width="160" height="160" transform="matrix(1.000000, 0.000000, 0.000000, 1.000000, 0.000000, 0.000000)" class="frame-background"/></g><g style="fill: rgb(0, 0, 0);" class="frame-children"><path d="M128.000,65.500L128.000,190.500C162.517,190.500,190.500,162.517,190.500,128.000C190.500,93.483,162.517,65.500,128.000,65.500ZZ" style="fill: rgb(255, 217, 131);" class="fills"/><path d="M65.500,128.000C65.500,162.517,93.483,190.500,128.000,190.500L128.000,65.500C93.483,65.500,65.500,93.483,65.500,128.000ZZ" style="fill: rgb(102, 117, 127);" class="fills"/><ellipse cx="154.042" cy="95.014" rx="12.153" ry="12.153" transform="matrix(1.000000, 0.000000, 0.000000, 1.000000, 0.000000, 0.000000)" style="fill: rgb(255, 204, 77);" class="fills"/><ellipse cx="107.167" cy="121.056" rx="10.417" ry="10.417" transform="matrix(1.000000, 0.000000, 0.000000, 1.000000, 0.000000, 0.000000)" style="fill: rgb(91, 104, 118);" class="fills"/><ellipse cx="112.375" cy="160.986" rx="12.153" ry="12.153" transform="matrix(1.000000, 0.000000, 0.000000, 1.000000, 0.000000, 0.000000)" style="fill: rgb(91, 104, 118);" class="fills"/><ellipse cx="117.583" cy="86.333" rx="6.944" ry="6.944" transform="matrix(1.000000, 0.000000, 0.000000, 1.000000, 0.000000, 0.000000)" style="fill: rgb(91, 104, 118);" class="fills"/><ellipse cx="180.083" cy="128" rx="3.472" ry="3.472" transform="matrix(1.000000, 0.000000, 0.000000, 1.000000, 0.000000, 0.000000)" style="fill: rgb(255, 204, 77);" class="fills"/><ellipse cx="86.333" cy="96.75" rx="3.472" ry="3.472" transform="matrix(1.000000, 0.000000, 0.000000, 1.000000, 0.000000, 0.000000)" style="fill: rgb(91, 104, 118);" class="fills"/><ellipse cx="138.417" cy="173.139" rx="3.472" ry="3.472" transform="matrix(1.000000, 0.000000, 0.000000, 1.000000, 0.000000, 0.000000)" style="fill: rgb(255, 204, 77);" class="fills"/><ellipse cx="79.389" cy="131.472" rx="6.944" ry="6.944" transform="matrix(1.000000, 0.000000, 0.000000, 1.000000, 0.000000, 0.000000)" style="fill: rgb(91, 104, 118);" class="fills"/><ellipse cx="155.778" cy="145.361" rx="6.944" ry="6.944" transform="matrix(1.000000, 0.000000, 0.000000, 1.000000, 0.000000, 0.000000)" style="fill: rgb(255, 204, 77);" class="fills"/></g></g></g></svg>